<?xml version="1.0" standalone="no"?>
<!DOCTYPE svg PUBLIC "-//W3C//DTD SVG 20010904//EN"
 "http://www.w3.org/TR/2001/REC-SVG-20010904/DTD/svg10.dtd">
<svg version="1.0" xmlns="http://www.w3.org/2000/svg"
 width="4297.000000pt" height="2287.000000pt" viewBox="0 0 4297.000000 2287.000000"
 preserveAspectRatio="xMidYMid meet">

<g transform="translate(0.000000,2287.000000) scale(0.100000,-0.100000)"
fill="#000000" stroke="none">
<path d="M20265 22500 c-1892 -77 -3640 -369 -5420 -905 -3418 -1031 -6704
-2942 -9680 -5630 -706 -638 -1511 -1440 -2171 -2165 -901 -990 -1786 -2105
-2416 -3044 -99 -147 -164 -254 -160 -262 21 -37 591 -655 966 -1049 315 -330
1297 -1310 1661 -1656 1269 -1209 2397 -2198 4100 -3594 837 -686 1110 -918
1408 -1194 87 -80 195 -172 240 -204 96 -68 884 -577 892 -577 4 0 -27 39 -68
87 -473 560 -973 1293 -1331 1948 -1427 2613 -1653 5472 -644 8155 465 1237
1170 2377 2131 3450 185 206 729 747 942 936 1356 1204 2931 2134 4795 2831
375 140 1105 379 1345 440 11 2 -93 -51 -231 -120 -2050 -1018 -3668 -2530
-4717 -4407 -670 -1199 -1059 -2475 -1183 -3880 -21 -242 -30 -999 -15 -1268
60 -1046 275 -2022 656 -2982 430 -1082 1041 -2066 1859 -2990 151 -170 669
-690 841 -842 1301 -1154 2817 -1985 4515 -2475 910 -262 1832 -413 2830 -463
430 -22 1101 -11 1560 25 2801 221 5392 1375 7304 3255 1034 1017 1815 2180
2331 3470 318 793 524 1612 619 2460 66 584 74 1321 20 1910 -116 1276 -495
2529 -1110 3668 -66 123 -80 143 -98 139 -21 -4 -2167 -886 -2175 -893 -2 -2
41 -95 97 -206 442 -890 711 -1819 806 -2788 55 -557 46 -1215 -24 -1775 -187
-1481 -794 -2892 -1753 -4078 -352 -436 -835 -918 -1274 -1274 -1340 -1087
-3009 -1773 -4753 -1952 -378 -39 -518 -46 -980 -45 -474 0 -676 10 -1060 55
-1443 166 -2812 667 -4005 1464 -500 334 -870 639 -1316 1084 -284 284 -423
438 -634 701 -960 1199 -1562 2625 -1734 4110 -41 357 -46 456 -46 935 0 479
5 578 46 935 146 1262 614 2508 1347 3585 445 655 1029 1291 1658 1806 2210
1809 5218 2460 8049 1739 1285 -327 2507 -946 3500 -1774 76 -64 144 -115 151
-114 7 2 402 363 880 803 477 440 871 802 876 803 5 2 79 -36 166 -84 1171
-651 2189 -1411 3072 -2294 1110 -1110 1937 -2341 2484 -3699 349 -863 577
-1804 661 -2716 49 -538 49 -1155 0 -1700 -134 -1485 -628 -2960 -1453 -4335
-290 -483 -604 -932 -973 -1389 -205 -255 -207 -257 -189 -246 46 27 575 368
745 480 155 103 226 156 315 241 187 178 227 211 288 242 124 62 383 270 1062
853 1377 1183 3112 2791 5120 4748 621 605 1730 1702 1730 1712 0 22 -330 508
-564 829 -1401 1929 -3179 3824 -5056 5391 -1963 1639 -4033 2945 -6177 3895
-1746 774 -3517 1308 -5338 1609 -822 136 -1495 208 -2480 266 -229 14 -2546
21 -2840 9z"/>
<path d="M21535 17259 c-837 -62 -1627 -277 -2365 -646 -801 -400 -1473 -929
-2034 -1603 -565 -678 -987 -1483 -1216 -2316 -287 -1049 -294 -2158 -19
-3214 54 -207 181 -588 263 -785 488 -1176 1337 -2187 2415 -2875 837 -534
1746 -850 2766 -961 185 -21 261 -23 635 -24 457 0 593 9 945 61 1177 174
2255 664 3175 1443 153 129 454 424 600 586 858 958 1396 2157 1539 3430 102
913 9 1758 -284 2565 -118 325 -294 717 -317 707 -152 -62 -5492 -2127 -5494
-2124 -2 2 931 901 2074 1999 1142 1098 2087 2007 2100 2021 l23 24 -128 114
c-1001 893 -2220 1434 -3553 1578 -280 31 -846 41 -1125 20z"/>
</g>
</svg>
